{"title":"Confessions of a Dangerous Mind-720p MP4 AAC x264 BRRip 2002-CC","uid":7276188,"size":2151037820,"categoryP":"video","categoryS":"hd___movies","magnet":"?xt=urn:btih:c1281cb4692329abe26f358334d495bd07e6aa16&amp;dn=Confessions+of+a+Dangerous+Mind-720p+MP4+AAC+x264+BRRip+2002-CC&amp;tr=udp%3A%2F%2Ftracker.openbittorrent.com%3A80&amp;tr=udp%3A%2F%2Fopen.demonii.com%3A1337&amp;tr=udp%3A%2F%2Ftracker.coppersurfer.tk%3A6969&amp;tr=udp%3A%2F%2Fexodus.desync.com%3A6969","seeders":2,"leechers":0,"uploader":"Caveman44","files":-1,"time":1337289458,"description":"Source: Confessions.of.a.Dangerous.Mind.2002.720p.BluRay.X264-AMIABLE\n\nSubs: Danish, Dutch, English, Finnish, Greek, Persian, Polish, Romanian, Spanish and Swedish.\n\nSample and Screens included.\n\nGeneral\nComplete name                    : Confessions of a Dangerous Mind-720p MP4 AAC x264 BRRip 2002-CC.mp4\nFormat                           : MPEG-4\nFormat profile                   : Base Media\nCodec ID                         : isom\nFile size                        : 1.98 GiB\nDuration                         : 1h 53mn\nOverall bit rate                 : 2 495 Kbps\nEncoded date                     : UTC 2012-05-13 15:05:14\n\nVideo\nID                               : 1\nFormat                           : AVC\nFormat/Info                      : Advanced Video Codec\nFormat profile                   : &lt;a class=&quot;__cf_email__&quot; href=&quot;/cdn-cgi/l/email-protection&quot; data-cfemail=&quot;f3bb9a949bb3bfc0ddc2&quot;&gt;[email&amp;#160;protected]&lt;/a&gt;&lt;script cf-hash='f9e31' type=&quot;text/javascript&quot;&gt;\n/* &lt;![CDATA[ */!function(){try{var t=&quot;currentScript&quot;in document?document.currentScript:function(){for(var t=document.getElementsByTagName(&quot;script&quot;),e=t.length;e--;)if(t[e].getAttribute(&quot;cf-hash&quot;))return t[e]}();if(t&amp;&amp;t.previousSibling){var e,r,n,i,c=t.previousSibling,a=c.getAttribute(&quot;data-cfemail&quot;);if(a){for(e=&quot;&quot;,r=parseInt(a.substr(0,2),16),n=2;a.length-n;n+=2)i=parseInt(a.substr(n,2),16)^r,e+=String.fromCharCode(i);e=document.createTextNode(e),c.parentNode.replaceChild(e,c)}}}catch(u){}}();/* ]]&gt; */&lt;/script&gt;\nFormat settings, CABAC           : Yes\nFormat settings, ReFrames        : 5 frames\nCodec ID                         : avc1\nCodec ID/Info                    : Advanced Video Coding\nDuration                         : 1h 53mn\nBit rate mode                    : Variable\nBit rate                         : 2 113 Kbps\nNominal bit rate                 : 2 160 Kbps\nMaximum bit rate                 : 12.4 Mbps\nWidth                            : 1 280 pixels\nHeight                           : 528 pixels\nDisplay aspect ratio             : 2.35:1\nFrame rate mode                  : Variable\nFrame rate                       : 23.976 fps\nMinimum frame rate               : 19.048 fps\nMaximum frame rate               : 25.000 fps\nResolution                       : 24 bits\nColorimetry                      : 4:2:0\nScan type                        : Progressive\nBits/(Pixel*Frame)               : 0.130\nStream size                      : 1.68 GiB (85%)\nWriting library                  : x264 core 112\n\nAudio\nID                               : 2\nFormat                           : AAC\nFormat/Info                      : Advanced Audio Codec\nFormat version                   : Version 4\nFormat profile                   : LC\nFormat settings, SBR             : No\nCodec ID                         : 40\nDuration                         : 1h 53mn\nBit rate mode                    : Variable\nBit rate                         : 384 Kbps\nMaximum bit rate                 : 816 Kbps\nChannel(s)                       : 6 channels\nChannel positions                : Front: L C R, Rear: L R, LFE\nSampling rate                    : 48.0 KHz\nResolution                       : 16 bits\nStream size                      : 306 MiB (15%)\nLanguage                         : English\n\nEnjoy...\n\nRequested by DreamExtractor.","torrent":{"xt":"urn:btih:c1281cb4692329abe26f358334d495bd07e6aa16","amp;dn":"Confessions+of+a+Dangerous+Mind-720p+MP4+AAC+x264+BRRip+2002-CC","amp;tr":["udp%3A%2F%2Ftracker.openbittorrent.com%3A80","udp%3A%2F%2Fopen.demonii.com%3A1337","udp%3A%2F%2Ftracker.coppersurfer.tk%3A6969","udp%3A%2F%2Fexodus.desync.com%3A6969"],"infoHash":"c1281cb4692329abe26f358334d495bd07e6aa16","infoHashBuffer":{"type":"Buffer","data":[193,40,28,180,105,35,41,171,226,111,53,131,52,212,149,189,7,230,170,22]},"announce":[],"urlList":[]}}